<svg width="20" height="20" viewBox="0 0 20 20" fill="none" xmlns="http://www.w3.org/2000/svg">
<g clip-path="url(#clip0_1_144)">
<path d="M10.4167 6.66666H9.16667V11.6667L13.125 14.0417L13.75 13.0167L10.4167 11.0417V6.66666ZM14.4475 1.50833L18.2867 4.7125L17.22 5.99166L13.3783 2.78916L14.4475 1.50833ZM5.55251 1.50833L6.62084 2.78833L2.78084 5.99166L1.71417 4.71166L5.55251 1.50833ZM10 3.33333C5.85834 3.33333 2.50001 6.69167 2.50001 10.8333C2.50001 14.975 5.85834 18.3333 10 18.3333C14.1417 18.3333 17.5 14.975 17.5 10.8333C17.5 6.69167 14.1417 3.33333 10 3.33333ZM10 16.6667C6.78334 16.6667 4.16667 14.05 4.16667 10.8333C4.16667 7.61667 6.78334 5 10 5C13.2167 5 15.8333 7.61667 15.8333 10.8333C15.8333 14.05 13.2167 16.6667 10 16.6667Z" fill="#333333" fill-opacity="0.8"/>
</g>
<defs>
<clipPath id="clip0_1_144">
<rect width="20" height="20" fill="white"/>
</clipPath>
</defs>
</svg>
