<svg width="20" height="20" viewBox="0 0 20 20" fill="none" xmlns="http://www.w3.org/2000/svg">
<g clip-path="url(#clip0_1_141)">
<path d="M15.8333 3.33332H15V1.66666H13.3333V3.33332H6.66667V1.66666H5V3.33332H4.16667C3.24167 3.33332 2.50833 4.08332 2.50833 4.99999L2.5 16.6667C2.5 17.5833 3.24167 18.3333 4.16667 18.3333H15.8333C16.75 18.3333 17.5 17.5833 17.5 16.6667V4.99999C17.5 4.08332 16.75 3.33332 15.8333 3.33332ZM15.8333 16.6667H4.16667V8.33332H15.8333V16.6667ZM15.8333 6.66666H4.16667V4.99999H15.8333V6.66666ZM10 10.8333H14.1667V15H10V10.8333Z" fill="#333333" fill-opacity="0.8"/>
</g>
<defs>
<clipPath id="clip0_1_141">
<rect width="20" height="20" fill="white"/>
</clipPath>
</defs>
</svg>
