<svg width="1218" height="38" viewBox="0 0 1218 38" fill="none" xmlns="http://www.w3.org/2000/svg">
<path d="M8.58 22L5.5 16.56H4.18V22H1.38V8.04H6.62C7.7 8.04 8.62 8.23333 9.38 8.62C10.14 8.99333 10.7067 9.50667 11.08 10.16C11.4667 10.8 11.66 11.52 11.66 12.32C11.66 13.24 11.3933 14.0733 10.86 14.82C10.3267 15.5533 9.53333 16.06 8.48 16.34L11.82 22H8.58ZM4.18 14.46H6.52C7.28 14.46 7.84667 14.28 8.22 13.92C8.59333 13.5467 8.78 13.0333 8.78 12.38C8.78 11.74 8.59333 11.2467 8.22 10.9C7.84667 10.54 7.28 10.36 6.52 10.36H4.18V14.46ZM13.4725 16.42C13.4725 15.3 13.6925 14.3067 14.1325 13.44C14.5858 12.5733 15.1925 11.9067 15.9525 11.44C16.7258 10.9733 17.5858 10.74 18.5325 10.74C19.3592 10.74 20.0792 10.9067 20.6925 11.24C21.3192 11.5733 21.8192 11.9933 22.1925 12.5V10.92H25.0125V22H22.1925V20.38C21.8325 20.9 21.3325 21.3333 20.6925 21.68C20.0658 22.0133 19.3392 22.18 18.5125 22.18C17.5792 22.18 16.7258 21.94 15.9525 21.46C15.1925 20.98 14.5858 20.3067 14.1325 19.44C13.6925 18.56 13.4725 17.5533 13.4725 16.42ZM22.1925 16.46C22.1925 15.78 22.0592 15.2 21.7925 14.72C21.5258 14.2267 21.1658 13.8533 20.7125 13.6C20.2592 13.3333 19.7725 13.2 19.2525 13.2C18.7325 13.2 18.2525 13.3267 17.8125 13.58C17.3725 13.8333 17.0125 14.2067 16.7325 14.7C16.4658 15.18 16.3325 15.7533 16.3325 16.42C16.3325 17.0867 16.4658 17.6733 16.7325 18.18C17.0125 18.6733 17.3725 19.0533 17.8125 19.32C18.2658 19.5867 18.7458 19.72 19.2525 19.72C19.7725 19.72 20.2592 19.5933 20.7125 19.34C21.1658 19.0733 21.5258 18.7 21.7925 18.22C22.0592 17.7267 22.1925 17.14 22.1925 16.46ZM41.5072 10.76C42.8672 10.76 43.9605 11.18 44.7872 12.02C45.6272 12.8467 46.0472 14.0067 46.0472 15.5V22H43.2472V15.88C43.2472 15.0133 43.0272 14.3533 42.5872 13.9C42.1472 13.4333 41.5472 13.2 40.7872 13.2C40.0272 13.2 39.4205 13.4333 38.9672 13.9C38.5272 14.3533 38.3072 15.0133 38.3072 15.88V22H35.5072V15.88C35.5072 15.0133 35.2872 14.3533 34.8472 13.9C34.4072 13.4333 33.8072 13.2 33.0472 13.2C32.2739 13.2 31.6605 13.4333 31.2072 13.9C30.7672 14.3533 30.5472 15.0133 30.5472 15.88V22H27.7472V10.92H30.5472V12.26C30.9072 11.7933 31.3672 11.4267 31.9272 11.16C32.5005 10.8933 33.1272 10.76 33.8072 10.76C34.6739 10.76 35.4472 10.9467 36.1272 11.32C36.8072 11.68 37.3339 12.2 37.7072 12.88C38.0672 12.24 38.5872 11.7267 39.2672 11.34C39.9605 10.9533 40.7072 10.76 41.5072 10.76ZM59.0042 16.22C59.0042 16.62 58.9776 16.98 58.9242 17.3H50.8242C50.8909 18.1 51.1709 18.7267 51.6642 19.18C52.1576 19.6333 52.7642 19.86 53.4842 19.86C54.5242 19.86 55.2642 19.4133 55.7042 18.52H58.7242C58.4042 19.5867 57.7909 20.4667 56.8842 21.16C55.9776 21.84 54.8642 22.18 53.5442 22.18C52.4776 22.18 51.5176 21.9467 50.6642 21.48C49.8242 21 49.1642 20.3267 48.6842 19.46C48.2176 18.5933 47.9842 17.5933 47.9842 16.46C47.9842 15.3133 48.2176 14.3067 48.6842 13.44C49.1509 12.5733 49.8042 11.9067 50.6442 11.44C51.4842 10.9733 52.4509 10.74 53.5442 10.74C54.5976 10.74 55.5376 10.9667 56.3642 11.42C57.2042 11.8733 57.8509 12.52 58.3042 13.36C58.7709 14.1867 59.0042 15.14 59.0042 16.22ZM56.1042 15.42C56.0909 14.7 55.8309 14.1267 55.3242 13.7C54.8176 13.26 54.1976 13.04 53.4642 13.04C52.7709 13.04 52.1842 13.2533 51.7042 13.68C51.2376 14.0933 50.9509 14.6733 50.8442 15.42H56.1042ZM67.188 10.76C68.508 10.76 69.5746 11.18 70.388 12.02C71.2013 12.8467 71.608 14.0067 71.608 15.5V22H68.808V15.88C68.808 15 68.588 14.3267 68.148 13.86C67.708 13.38 67.108 13.14 66.348 13.14C65.5746 13.14 64.9613 13.38 64.508 13.86C64.068 14.3267 63.848 15 63.848 15.88V22H61.048V10.92H63.848V12.3C64.2213 11.82 64.6946 11.4467 65.268 11.18C65.8546 10.9 66.4946 10.76 67.188 10.76Z" fill="#FF4A22"/>
<path d="M75.0106 22.12C74.664 22.12 74.3706 22 74.1306 21.76C73.8906 21.52 73.7706 21.2267 73.7706 20.88C73.7706 20.5333 73.8906 20.24 74.1306 20C74.3706 19.76 74.664 19.64 75.0106 19.64C75.344 19.64 75.624 19.76 75.8506 20C76.0906 20.24 76.2106 20.5333 76.2106 20.88C76.2106 21.2267 76.0906 21.52 75.8506 21.76C75.624 22 75.344 22.12 75.0106 22.12ZM84.7498 22L80.4498 17.16V22H78.6298V7.2H80.4498V15.9L84.6698 11.04H87.2098L82.0498 16.5L87.2298 22H84.7498ZM98.6428 11.04V22H96.8228V20.38C96.4761 20.94 95.9895 21.38 95.3628 21.7C94.7495 22.0067 94.0695 22.16 93.3228 22.16C92.4695 22.16 91.7028 21.9867 91.0228 21.64C90.3428 21.28 89.8028 20.7467 89.4028 20.04C89.0161 19.3333 88.8228 18.4733 88.8228 17.46V11.04H90.6228V17.22C90.6228 18.3 90.8961 19.1333 91.4428 19.72C91.9895 20.2933 92.7361 20.58 93.6828 20.58C94.6561 20.58 95.4228 20.28 95.9828 19.68C96.5428 19.08 96.8228 18.2067 96.8228 17.06V11.04H98.6428ZM111.156 11.04L104.556 27.16H102.676L104.836 21.88L100.416 11.04H102.436L105.876 19.92L109.276 11.04H111.156Z" fill="black"/>
<path d="M640.56 14.66V23H639.192V19.352H635.268V23H633.9V14.66H635.268V18.236H639.192V14.66H640.56ZM645.229 23.108C644.605 23.108 644.041 22.968 643.537 22.688C643.033 22.4 642.637 22 642.349 21.488C642.061 20.968 641.917 20.368 641.917 19.688C641.917 19.016 642.065 18.42 642.361 17.9C642.657 17.38 643.061 16.98 643.573 16.7C644.085 16.42 644.657 16.28 645.289 16.28C645.921 16.28 646.493 16.42 647.005 16.7C647.517 16.98 647.921 17.38 648.217 17.9C648.513 18.42 648.661 19.016 648.661 19.688C648.661 20.36 648.509 20.956 648.205 21.476C647.901 21.996 647.485 22.4 646.957 22.688C646.437 22.968 645.861 23.108 645.229 23.108ZM645.229 21.92C645.581 21.92 645.909 21.836 646.213 21.668C646.525 21.5 646.777 21.248 646.969 20.912C647.161 20.576 647.257 20.168 647.257 19.688C647.257 19.208 647.165 18.804 646.981 18.476C646.797 18.14 646.553 17.888 646.249 17.72C645.945 17.552 645.617 17.468 645.265 17.468C644.913 17.468 644.585 17.552 644.281 17.72C643.985 17.888 643.749 18.14 643.573 18.476C643.397 18.804 643.309 19.208 643.309 19.688C643.309 20.4 643.489 20.952 643.849 21.344C644.217 21.728 644.677 21.92 645.229 21.92ZM658.017 16.28C658.537 16.28 659.001 16.388 659.409 16.604C659.825 16.82 660.149 17.14 660.381 17.564C660.621 17.988 660.741 18.5 660.741 19.1V23H659.385V19.304C659.385 18.712 659.237 18.26 658.941 17.948C658.645 17.628 658.241 17.468 657.729 17.468C657.217 17.468 656.809 17.628 656.505 17.948C656.209 18.26 656.061 18.712 656.061 19.304V23H654.705V19.304C654.705 18.712 654.557 18.26 654.261 17.948C653.965 17.628 653.561 17.468 653.049 17.468C652.537 17.468 652.129 17.628 651.825 17.948C651.529 18.26 651.381 18.712 651.381 19.304V23H650.013V16.388H651.381V17.144C651.605 16.872 651.889 16.66 652.233 16.508C652.577 16.356 652.945 16.28 653.337 16.28C653.865 16.28 654.337 16.392 654.753 16.616C655.169 16.84 655.489 17.164 655.713 17.588C655.913 17.188 656.225 16.872 656.649 16.64C657.073 16.4 657.529 16.28 658.017 16.28ZM668.542 19.532C668.542 19.78 668.526 20.004 668.494 20.204H663.442C663.482 20.732 663.678 21.156 664.03 21.476C664.382 21.796 664.814 21.956 665.326 21.956C666.062 21.956 666.582 21.648 666.886 21.032H668.362C668.162 21.64 667.798 22.14 667.27 22.532C666.75 22.916 666.102 23.108 665.326 23.108C664.694 23.108 664.126 22.968 663.622 22.688C663.126 22.4 662.734 22 662.446 21.488C662.166 20.968 662.026 20.368 662.026 19.688C662.026 19.008 662.162 18.412 662.434 17.9C662.714 17.38 663.102 16.98 663.598 16.7C664.102 16.42 664.678 16.28 665.326 16.28C665.95 16.28 666.506 16.416 666.994 16.688C667.482 16.96 667.862 17.344 668.134 17.84C668.406 18.328 668.542 18.892 668.542 19.532ZM667.114 19.1C667.106 18.596 666.926 18.192 666.574 17.888C666.222 17.584 665.786 17.432 665.266 17.432C664.794 17.432 664.39 17.584 664.054 17.888C663.718 18.184 663.518 18.588 663.454 19.1H667.114Z" fill="#FF4A22"/>
<path d="M708.368 14.636V23H707.276V19.208H703.016V23H701.924V14.636H703.016V18.308H707.276V14.636H708.368ZM713.101 23.108C712.485 23.108 711.925 22.968 711.421 22.688C710.925 22.408 710.533 22.012 710.245 21.5C709.965 20.98 709.825 20.38 709.825 19.7C709.825 19.028 709.969 18.436 710.257 17.924C710.553 17.404 710.953 17.008 711.457 16.736C711.961 16.456 712.525 16.316 713.149 16.316C713.773 16.316 714.337 16.456 714.841 16.736C715.345 17.008 715.741 17.4 716.029 17.912C716.325 18.424 716.473 19.02 716.473 19.7C716.473 20.38 716.321 20.98 716.017 21.5C715.721 22.012 715.317 22.408 714.805 22.688C714.293 22.968 713.725 23.108 713.101 23.108ZM713.101 22.148C713.493 22.148 713.861 22.056 714.205 21.872C714.549 21.688 714.825 21.412 715.033 21.044C715.249 20.676 715.357 20.228 715.357 19.7C715.357 19.172 715.253 18.724 715.045 18.356C714.837 17.988 714.565 17.716 714.229 17.54C713.893 17.356 713.529 17.264 713.137 17.264C712.737 17.264 712.369 17.356 712.033 17.54C711.705 17.716 711.441 17.988 711.241 18.356C711.041 18.724 710.941 19.172 710.941 19.7C710.941 20.236 711.037 20.688 711.229 21.056C711.429 21.424 711.693 21.7 712.021 21.884C712.349 22.06 712.709 22.148 713.101 22.148ZM726.668 16.424L724.616 23H723.488L721.904 17.78L720.32 23H719.192L717.128 16.424H718.244L719.756 21.944L721.388 16.424H722.504L724.1 21.956L725.588 16.424H726.668ZM732.283 17.324V21.2C732.283 21.52 732.351 21.748 732.487 21.884C732.623 22.012 732.859 22.076 733.195 22.076H733.999V23H733.015C732.407 23 731.951 22.86 731.647 22.58C731.343 22.3 731.191 21.84 731.191 21.2V17.324H730.339V16.424H731.191V14.768H732.283V16.424H733.999V17.324H732.283ZM738.19 23.108C737.574 23.108 737.014 22.968 736.51 22.688C736.014 22.408 735.622 22.012 735.334 21.5C735.054 20.98 734.914 20.38 734.914 19.7C734.914 19.028 735.058 18.436 735.346 17.924C735.642 17.404 736.042 17.008 736.546 16.736C737.05 16.456 737.614 16.316 738.238 16.316C738.862 16.316 739.426 16.456 739.93 16.736C740.434 17.008 740.83 17.4 741.118 17.912C741.414 18.424 741.562 19.02 741.562 19.7C741.562 20.38 741.41 20.98 741.106 21.5C740.81 22.012 740.406 22.408 739.894 22.688C739.382 22.968 738.814 23.108 738.19 23.108ZM738.19 22.148C738.582 22.148 738.95 22.056 739.294 21.872C739.638 21.688 739.914 21.412 740.122 21.044C740.338 20.676 740.446 20.228 740.446 19.7C740.446 19.172 740.342 18.724 740.134 18.356C739.926 17.988 739.654 17.716 739.318 17.54C738.982 17.356 738.618 17.264 738.226 17.264C737.826 17.264 737.458 17.356 737.122 17.54C736.794 17.716 736.53 17.988 736.33 18.356C736.13 18.724 736.03 19.172 736.03 19.7C736.03 20.236 736.126 20.688 736.318 21.056C736.518 21.424 736.782 21.7 737.11 21.884C737.438 22.06 737.798 22.148 738.19 22.148ZM749.989 23.084C749.213 23.084 748.505 22.904 747.865 22.544C747.225 22.176 746.717 21.668 746.341 21.02C745.973 20.364 745.789 19.628 745.789 18.812C745.789 17.996 745.973 17.264 746.341 16.616C746.717 15.96 747.225 15.452 747.865 15.092C748.505 14.724 749.213 14.54 749.989 14.54C750.773 14.54 751.485 14.724 752.125 15.092C752.765 15.452 753.269 15.956 753.637 16.604C754.005 17.252 754.189 17.988 754.189 18.812C754.189 19.636 754.005 20.372 753.637 21.02C753.269 21.668 752.765 22.176 752.125 22.544C751.485 22.904 750.773 23.084 749.989 23.084ZM749.989 22.136C750.573 22.136 751.097 22 751.561 21.728C752.033 21.456 752.401 21.068 752.665 20.564C752.937 20.06 753.073 19.476 753.073 18.812C753.073 18.14 752.937 17.556 752.665 17.06C752.401 16.556 752.037 16.168 751.573 15.896C751.109 15.624 750.581 15.488 749.989 15.488C749.397 15.488 748.869 15.624 748.405 15.896C747.941 16.168 747.573 16.556 747.301 17.06C747.037 17.556 746.905 18.14 746.905 18.812C746.905 19.476 747.037 20.06 747.301 20.564C747.573 21.068 747.941 21.456 748.405 21.728C748.877 22 749.405 22.136 749.989 22.136ZM756.723 17.492C756.915 17.116 757.187 16.824 757.539 16.616C757.899 16.408 758.335 16.304 758.847 16.304V17.432H758.559C757.335 17.432 756.723 18.096 756.723 19.424V23H755.631V16.424H756.723V17.492ZM759.7 19.688C759.7 19.016 759.836 18.428 760.108 17.924C760.38 17.412 760.752 17.016 761.224 16.736C761.704 16.456 762.24 16.316 762.832 16.316C763.344 16.316 763.82 16.436 764.26 16.676C764.7 16.908 765.036 17.216 765.268 17.6V14.12H766.372V23H765.268V21.764C765.052 22.156 764.732 22.48 764.308 22.736C763.884 22.984 763.388 23.108 762.82 23.108C762.236 23.108 761.704 22.964 761.224 22.676C760.752 22.388 760.38 21.984 760.108 21.464C759.836 20.944 759.7 20.352 759.7 19.688ZM765.268 19.7C765.268 19.204 765.168 18.772 764.968 18.404C764.768 18.036 764.496 17.756 764.152 17.564C763.816 17.364 763.444 17.264 763.036 17.264C762.628 17.264 762.256 17.36 761.92 17.552C761.584 17.744 761.316 18.024 761.116 18.392C760.916 18.76 760.816 19.192 760.816 19.688C760.816 20.192 760.916 20.632 761.116 21.008C761.316 21.376 761.584 21.66 761.92 21.86C762.256 22.052 762.628 22.148 763.036 22.148C763.444 22.148 763.816 22.052 764.152 21.86C764.496 21.66 764.768 21.376 764.968 21.008C765.168 20.632 765.268 20.196 765.268 19.7ZM774.217 19.46C774.217 19.668 774.205 19.888 774.181 20.12H768.925C768.965 20.768 769.185 21.276 769.585 21.644C769.993 22.004 770.485 22.184 771.061 22.184C771.533 22.184 771.925 22.076 772.237 21.86C772.557 21.636 772.781 21.34 772.909 20.972H774.085C773.909 21.604 773.557 22.12 773.029 22.52C772.501 22.912 771.845 23.108 771.061 23.108C770.437 23.108 769.877 22.968 769.381 22.688C768.893 22.408 768.509 22.012 768.229 21.5C767.949 20.98 767.809 20.38 767.809 19.7C767.809 19.02 767.945 18.424 768.217 17.912C768.489 17.4 768.869 17.008 769.357 16.736C769.853 16.456 770.421 16.316 771.061 16.316C771.685 16.316 772.237 16.452 772.717 16.724C773.197 16.996 773.565 17.372 773.821 17.852C774.085 18.324 774.217 18.86 774.217 19.46ZM773.089 19.232C773.089 18.816 772.997 18.46 772.813 18.164C772.629 17.86 772.377 17.632 772.057 17.48C771.745 17.32 771.397 17.24 771.013 17.24C770.461 17.24 769.989 17.416 769.597 17.768C769.213 18.12 768.993 18.608 768.937 19.232H773.089ZM776.75 17.492C776.942 17.116 777.214 16.824 777.566 16.616C777.926 16.408 778.362 16.304 778.874 16.304V17.432H778.586C777.362 17.432 776.75 18.096 776.75 19.424V23H775.658V16.424H776.75V17.492Z" fill="black"/>
<path d="M816.716 23.084C815.94 23.084 815.232 22.904 814.592 22.544C813.952 22.176 813.444 21.668 813.068 21.02C812.7 20.364 812.516 19.628 812.516 18.812C812.516 17.996 812.7 17.264 813.068 16.616C813.444 15.96 813.952 15.452 814.592 15.092C815.232 14.724 815.94 14.54 816.716 14.54C817.5 14.54 818.212 14.724 818.852 15.092C819.492 15.452 819.996 15.956 820.364 16.604C820.732 17.252 820.916 17.988 820.916 18.812C820.916 19.636 820.732 20.372 820.364 21.02C819.996 21.668 819.492 22.176 818.852 22.544C818.212 22.904 817.5 23.084 816.716 23.084ZM816.716 22.136C817.3 22.136 817.824 22 818.288 21.728C818.76 21.456 819.128 21.068 819.392 20.564C819.664 20.06 819.8 19.476 819.8 18.812C819.8 18.14 819.664 17.556 819.392 17.06C819.128 16.556 818.764 16.168 818.3 15.896C817.836 15.624 817.308 15.488 816.716 15.488C816.124 15.488 815.596 15.624 815.132 15.896C814.668 16.168 814.3 16.556 814.028 17.06C813.764 17.556 813.632 18.14 813.632 18.812C813.632 19.476 813.764 20.06 814.028 20.564C814.3 21.068 814.668 21.456 815.132 21.728C815.604 22 816.132 22.136 816.716 22.136ZM828.19 16.424V23H827.098V22.028C826.89 22.364 826.598 22.628 826.222 22.82C825.854 23.004 825.446 23.096 824.998 23.096C824.486 23.096 824.026 22.992 823.618 22.784C823.21 22.568 822.886 22.248 822.646 21.824C822.414 21.4 822.298 20.884 822.298 20.276V16.424H823.378V20.132C823.378 20.78 823.542 21.28 823.87 21.632C824.198 21.976 824.646 22.148 825.214 22.148C825.798 22.148 826.258 21.968 826.594 21.608C826.93 21.248 827.098 20.724 827.098 20.036V16.424H828.19ZM831.125 17.492C831.317 17.116 831.589 16.824 831.941 16.616C832.301 16.408 832.737 16.304 833.249 16.304V17.432H832.961C831.737 17.432 831.125 18.096 831.125 19.424V23H830.033V16.424H831.125V17.492ZM846.193 14.696V23H845.101V16.808L842.341 23H841.573L838.801 16.796V23H837.709V14.696H838.885L841.957 21.56L845.029 14.696H846.193ZM854.045 19.46C854.045 19.668 854.033 19.888 854.009 20.12H848.753C848.793 20.768 849.013 21.276 849.413 21.644C849.821 22.004 850.313 22.184 850.889 22.184C851.361 22.184 851.753 22.076 852.065 21.86C852.385 21.636 852.609 21.34 852.737 20.972H853.913C853.737 21.604 853.385 22.12 852.857 22.52C852.329 22.912 851.673 23.108 850.889 23.108C850.265 23.108 849.705 22.968 849.209 22.688C848.721 22.408 848.337 22.012 848.057 21.5C847.777 20.98 847.637 20.38 847.637 19.7C847.637 19.02 847.773 18.424 848.045 17.912C848.317 17.4 848.697 17.008 849.185 16.736C849.681 16.456 850.249 16.316 850.889 16.316C851.513 16.316 852.065 16.452 852.545 16.724C853.025 16.996 853.393 17.372 853.649 17.852C853.913 18.324 854.045 18.86 854.045 19.46ZM852.917 19.232C852.917 18.816 852.825 18.46 852.641 18.164C852.457 17.86 852.205 17.632 851.885 17.48C851.573 17.32 851.225 17.24 850.841 17.24C850.289 17.24 849.817 17.416 849.425 17.768C849.041 18.12 848.821 18.608 848.765 19.232H852.917ZM858.691 16.304C859.491 16.304 860.139 16.548 860.635 17.036C861.131 17.516 861.379 18.212 861.379 19.124V23H860.299V19.28C860.299 18.624 860.135 18.124 859.807 17.78C859.479 17.428 859.031 17.252 858.463 17.252C857.887 17.252 857.427 17.432 857.083 17.792C856.747 18.152 856.579 18.676 856.579 19.364V23H855.487V16.424H856.579V17.36C856.795 17.024 857.087 16.764 857.455 16.58C857.831 16.396 858.243 16.304 858.691 16.304ZM868.994 16.424V23H867.902V22.028C867.694 22.364 867.402 22.628 867.026 22.82C866.658 23.004 866.25 23.096 865.802 23.096C865.29 23.096 864.83 22.992 864.422 22.784C864.014 22.568 863.69 22.248 863.45 21.824C863.218 21.4 863.102 20.884 863.102 20.276V16.424H864.182V20.132C864.182 20.78 864.346 21.28 864.674 21.632C865.002 21.976 865.45 22.148 866.018 22.148C866.602 22.148 867.062 21.968 867.398 21.608C867.734 21.248 867.902 20.724 867.902 20.036V16.424H868.994Z" fill="black"/>
<path d="M906.716 23.084C905.94 23.084 905.232 22.904 904.592 22.544C903.952 22.176 903.444 21.668 903.068 21.02C902.7 20.364 902.516 19.628 902.516 18.812C902.516 17.996 902.7 17.264 903.068 16.616C903.444 15.96 903.952 15.452 904.592 15.092C905.232 14.724 905.94 14.54 906.716 14.54C907.5 14.54 908.212 14.724 908.852 15.092C909.492 15.452 909.996 15.956 910.364 16.604C910.732 17.252 910.916 17.988 910.916 18.812C910.916 19.636 910.732 20.372 910.364 21.02C909.996 21.668 909.492 22.176 908.852 22.544C908.212 22.904 907.5 23.084 906.716 23.084ZM906.716 22.136C907.3 22.136 907.824 22 908.288 21.728C908.76 21.456 909.128 21.068 909.392 20.564C909.664 20.06 909.8 19.476 909.8 18.812C909.8 18.14 909.664 17.556 909.392 17.06C909.128 16.556 908.764 16.168 908.3 15.896C907.836 15.624 907.308 15.488 906.716 15.488C906.124 15.488 905.596 15.624 905.132 15.896C904.668 16.168 904.3 16.556 904.028 17.06C903.764 17.556 903.632 18.14 903.632 18.812C903.632 19.476 903.764 20.06 904.028 20.564C904.3 21.068 904.668 21.456 905.132 21.728C905.604 22 906.132 22.136 906.716 22.136ZM918.19 16.424V23H917.098V22.028C916.89 22.364 916.598 22.628 916.222 22.82C915.854 23.004 915.446 23.096 914.998 23.096C914.486 23.096 914.026 22.992 913.618 22.784C913.21 22.568 912.886 22.248 912.646 21.824C912.414 21.4 912.298 20.884 912.298 20.276V16.424H913.378V20.132C913.378 20.78 913.542 21.28 913.87 21.632C914.198 21.976 914.646 22.148 915.214 22.148C915.798 22.148 916.258 21.968 916.594 21.608C916.93 21.248 917.098 20.724 917.098 20.036V16.424H918.19ZM921.125 17.492C921.317 17.116 921.589 16.824 921.941 16.616C922.301 16.408 922.737 16.304 923.249 16.304V17.432H922.961C921.737 17.432 921.125 18.096 921.125 19.424V23H920.033V16.424H921.125V17.492ZM932.113 23L930.121 19.58H928.801V23H927.709V14.636H930.409C931.041 14.636 931.573 14.744 932.005 14.96C932.445 15.176 932.773 15.468 932.989 15.836C933.205 16.204 933.313 16.624 933.313 17.096C933.313 17.672 933.145 18.18 932.809 18.62C932.481 19.06 931.985 19.352 931.321 19.496L933.421 23H932.113ZM928.801 18.704H930.409C931.001 18.704 931.445 18.56 931.741 18.272C932.037 17.976 932.185 17.584 932.185 17.096C932.185 16.6 932.037 16.216 931.741 15.944C931.453 15.672 931.009 15.536 930.409 15.536H928.801V18.704ZM941.01 19.46C941.01 19.668 940.998 19.888 940.974 20.12H935.718C935.758 20.768 935.978 21.276 936.378 21.644C936.786 22.004 937.278 22.184 937.854 22.184C938.326 22.184 938.718 22.076 939.03 21.86C939.35 21.636 939.574 21.34 939.702 20.972H940.878C940.702 21.604 940.35 22.12 939.822 22.52C939.294 22.912 938.638 23.108 937.854 23.108C937.23 23.108 936.67 22.968 936.174 22.688C935.686 22.408 935.302 22.012 935.022 21.5C934.742 20.98 934.602 20.38 934.602 19.7C934.602 19.02 934.738 18.424 935.01 17.912C935.282 17.4 935.662 17.008 936.15 16.736C936.646 16.456 937.214 16.316 937.854 16.316C938.478 16.316 939.03 16.452 939.51 16.724C939.99 16.996 940.358 17.372 940.614 17.852C940.878 18.324 941.01 18.86 941.01 19.46ZM939.882 19.232C939.882 18.816 939.79 18.46 939.606 18.164C939.422 17.86 939.17 17.632 938.85 17.48C938.538 17.32 938.19 17.24 937.806 17.24C937.254 17.24 936.782 17.416 936.39 17.768C936.006 18.12 935.786 18.608 935.73 19.232H939.882ZM942.043 19.7C942.043 19.02 942.179 18.428 942.451 17.924C942.723 17.412 943.099 17.016 943.579 16.736C944.067 16.456 944.623 16.316 945.247 16.316C946.055 16.316 946.719 16.512 947.239 16.904C947.767 17.296 948.115 17.84 948.283 18.536H947.107C946.995 18.136 946.775 17.82 946.447 17.588C946.127 17.356 945.727 17.24 945.247 17.24C944.623 17.24 944.119 17.456 943.735 17.888C943.351 18.312 943.159 18.916 943.159 19.7C943.159 20.492 943.351 21.104 943.735 21.536C944.119 21.968 944.623 22.184 945.247 22.184C945.727 22.184 946.127 22.072 946.447 21.848C946.767 21.624 946.987 21.304 947.107 20.888H948.283C948.107 21.56 947.755 22.1 947.227 22.508C946.699 22.908 946.039 23.108 945.247 23.108C944.623 23.108 944.067 22.968 943.579 22.688C943.099 22.408 942.723 22.012 942.451 21.5C942.179 20.988 942.043 20.388 942.043 19.7ZM950.304 15.356C950.096 15.356 949.92 15.284 949.776 15.14C949.632 14.996 949.56 14.82 949.56 14.612C949.56 14.404 949.632 14.228 949.776 14.084C949.92 13.94 950.096 13.868 950.304 13.868C950.504 13.868 950.672 13.94 950.808 14.084C950.952 14.228 951.024 14.404 951.024 14.612C951.024 14.82 950.952 14.996 950.808 15.14C950.672 15.284 950.504 15.356 950.304 15.356ZM950.832 16.424V23H949.74V16.424H950.832ZM953.786 17.636C954.002 17.26 954.322 16.948 954.746 16.7C955.178 16.444 955.678 16.316 956.246 16.316C956.83 16.316 957.358 16.456 957.83 16.736C958.31 17.016 958.686 17.412 958.958 17.924C959.23 18.428 959.366 19.016 959.366 19.688C959.366 20.352 959.23 20.944 958.958 21.464C958.686 21.984 958.31 22.388 957.83 22.676C957.358 22.964 956.83 23.108 956.246 23.108C955.686 23.108 955.19 22.984 954.758 22.736C954.334 22.48 954.01 22.164 953.786 21.788V26.12H952.694V16.424H953.786V17.636ZM958.25 19.688C958.25 19.192 958.15 18.76 957.95 18.392C957.75 18.024 957.478 17.744 957.134 17.552C956.798 17.36 956.426 17.264 956.018 17.264C955.618 17.264 955.246 17.364 954.902 17.564C954.566 17.756 954.294 18.04 954.086 18.416C953.886 18.784 953.786 19.212 953.786 19.7C953.786 20.196 953.886 20.632 954.086 21.008C954.294 21.376 954.566 21.66 954.902 21.86C955.246 22.052 955.618 22.148 956.018 22.148C956.426 22.148 956.798 22.052 957.134 21.86C957.478 21.66 957.75 21.376 957.95 21.008C958.15 20.632 958.25 20.192 958.25 19.688ZM966.803 19.46C966.803 19.668 966.791 19.888 966.767 20.12H961.511C961.551 20.768 961.771 21.276 962.171 21.644C962.579 22.004 963.071 22.184 963.647 22.184C964.119 22.184 964.511 22.076 964.823 21.86C965.143 21.636 965.367 21.34 965.495 20.972H966.671C966.495 21.604 966.143 22.12 965.615 22.52C965.087 22.912 964.431 23.108 963.647 23.108C963.023 23.108 962.463 22.968 961.967 22.688C961.479 22.408 961.095 22.012 960.815 21.5C960.535 20.98 960.395 20.38 960.395 19.7C960.395 19.02 960.531 18.424 960.803 17.912C961.075 17.4 961.455 17.008 961.943 16.736C962.439 16.456 963.007 16.316 963.647 16.316C964.271 16.316 964.823 16.452 965.303 16.724C965.783 16.996 966.151 17.372 966.407 17.852C966.671 18.324 966.803 18.86 966.803 19.46ZM965.675 19.232C965.675 18.816 965.583 18.46 965.399 18.164C965.215 17.86 964.963 17.632 964.643 17.48C964.331 17.32 963.983 17.24 963.599 17.24C963.047 17.24 962.575 17.416 962.183 17.768C961.799 18.12 961.579 18.608 961.523 19.232H965.675ZM970.572 23.108C970.068 23.108 969.616 23.024 969.216 22.856C968.816 22.68 968.5 22.44 968.268 22.136C968.036 21.824 967.908 21.468 967.884 21.068H969.012C969.044 21.396 969.196 21.664 969.468 21.872C969.748 22.08 970.112 22.184 970.56 22.184C970.976 22.184 971.304 22.092 971.544 21.908C971.784 21.724 971.904 21.492 971.904 21.212C971.904 20.924 971.776 20.712 971.52 20.576C971.264 20.432 970.868 20.292 970.332 20.156C969.844 20.028 969.444 19.9 969.132 19.772C968.828 19.636 968.564 19.44 968.34 19.184C968.124 18.92 968.016 18.576 968.016 18.152C968.016 17.816 968.116 17.508 968.316 17.228C968.516 16.948 968.8 16.728 969.168 16.568C969.536 16.4 969.956 16.316 970.428 16.316C971.156 16.316 971.744 16.5 972.192 16.868C972.64 17.236 972.88 17.74 972.912 18.38H971.82C971.796 18.036 971.656 17.76 971.4 17.552C971.152 17.344 970.816 17.24 970.392 17.24C970 17.24 969.688 17.324 969.456 17.492C969.224 17.66 969.108 17.88 969.108 18.152C969.108 18.368 969.176 18.548 969.312 18.692C969.456 18.828 969.632 18.94 969.84 19.028C970.056 19.108 970.352 19.2 970.728 19.304C971.2 19.432 971.584 19.56 971.88 19.688C972.176 19.808 972.428 19.992 972.636 20.24C972.852 20.488 972.964 20.812 972.972 21.212C972.972 21.572 972.872 21.896 972.672 22.184C972.472 22.472 972.188 22.7 971.82 22.868C971.46 23.028 971.044 23.108 970.572 23.108Z" fill="black"/>
<path d="M1006.52 18.812C1006.52 17.996 1006.7 17.264 1007.07 16.616C1007.44 15.96 1007.94 15.448 1008.57 15.08C1009.21 14.712 1009.92 14.528 1010.69 14.528C1011.6 14.528 1012.4 14.748 1013.08 15.188C1013.76 15.628 1014.26 16.252 1014.57 17.06H1013.26C1013.03 16.556 1012.69 16.168 1012.25 15.896C1011.82 15.624 1011.3 15.488 1010.69 15.488C1010.11 15.488 1009.58 15.624 1009.12 15.896C1008.66 16.168 1008.29 16.556 1008.03 17.06C1007.76 17.556 1007.63 18.14 1007.63 18.812C1007.63 19.476 1007.76 20.06 1008.03 20.564C1008.29 21.06 1008.66 21.444 1009.12 21.716C1009.58 21.988 1010.11 22.124 1010.69 22.124C1011.3 22.124 1011.82 21.992 1012.25 21.728C1012.69 21.456 1013.03 21.068 1013.26 20.564H1014.57C1014.26 21.364 1013.76 21.984 1013.08 22.424C1012.4 22.856 1011.6 23.072 1010.69 23.072C1009.92 23.072 1009.21 22.892 1008.57 22.532C1007.94 22.164 1007.44 21.656 1007.07 21.008C1006.7 20.36 1006.52 19.628 1006.52 18.812ZM1019.06 23.108C1018.45 23.108 1017.89 22.968 1017.38 22.688C1016.89 22.408 1016.49 22.012 1016.21 21.5C1015.93 20.98 1015.79 20.38 1015.79 19.7C1015.79 19.028 1015.93 18.436 1016.22 17.924C1016.51 17.404 1016.91 17.008 1017.42 16.736C1017.92 16.456 1018.49 16.316 1019.11 16.316C1019.73 16.316 1020.3 16.456 1020.8 16.736C1021.31 17.008 1021.7 17.4 1021.99 17.912C1022.29 18.424 1022.43 19.02 1022.43 19.7C1022.43 20.38 1022.28 20.98 1021.98 21.5C1021.68 22.012 1021.28 22.408 1020.77 22.688C1020.25 22.968 1019.69 23.108 1019.06 23.108ZM1019.06 22.148C1019.45 22.148 1019.82 22.056 1020.17 21.872C1020.51 21.688 1020.79 21.412 1020.99 21.044C1021.21 20.676 1021.32 20.228 1021.32 19.7C1021.32 19.172 1021.21 18.724 1021.01 18.356C1020.8 17.988 1020.53 17.716 1020.19 17.54C1019.85 17.356 1019.49 17.264 1019.1 17.264C1018.7 17.264 1018.33 17.356 1017.99 17.54C1017.67 17.716 1017.4 17.988 1017.2 18.356C1017 18.724 1016.9 19.172 1016.9 19.7C1016.9 20.236 1017 20.688 1017.19 21.056C1017.39 21.424 1017.65 21.7 1017.98 21.884C1018.31 22.06 1018.67 22.148 1019.06 22.148ZM1027.07 16.304C1027.87 16.304 1028.52 16.548 1029.02 17.036C1029.51 17.516 1029.76 18.212 1029.76 19.124V23H1028.68V19.28C1028.68 18.624 1028.52 18.124 1028.19 17.78C1027.86 17.428 1027.41 17.252 1026.85 17.252C1026.27 17.252 1025.81 17.432 1025.47 17.792C1025.13 18.152 1024.96 18.676 1024.96 19.364V23H1023.87V16.424H1024.96V17.36C1025.18 17.024 1025.47 16.764 1025.84 16.58C1026.21 16.396 1026.63 16.304 1027.07 16.304ZM1032.88 17.324V21.2C1032.88 21.52 1032.95 21.748 1033.08 21.884C1033.22 22.012 1033.45 22.076 1033.79 22.076H1034.59V23H1033.61C1033 23 1032.55 22.86 1032.24 22.58C1031.94 22.3 1031.79 21.84 1031.79 21.2V17.324H1030.93V16.424H1031.79V14.768H1032.88V16.424H1034.59V17.324H1032.88ZM1035.51 19.688C1035.51 19.016 1035.64 18.428 1035.92 17.924C1036.19 17.412 1036.56 17.016 1037.03 16.736C1037.51 16.456 1038.04 16.316 1038.63 16.316C1039.2 16.316 1039.7 16.44 1040.13 16.688C1040.55 16.936 1040.87 17.248 1041.08 17.624V16.424H1042.18V23H1041.08V21.776C1040.86 22.16 1040.54 22.48 1040.1 22.736C1039.68 22.984 1039.18 23.108 1038.62 23.108C1038.03 23.108 1037.5 22.964 1037.03 22.676C1036.56 22.388 1036.19 21.984 1035.92 21.464C1035.64 20.944 1035.51 20.352 1035.51 19.688ZM1041.08 19.7C1041.08 19.204 1040.98 18.772 1040.78 18.404C1040.58 18.036 1040.3 17.756 1039.96 17.564C1039.62 17.364 1039.25 17.264 1038.84 17.264C1038.44 17.264 1038.06 17.36 1037.73 17.552C1037.39 17.744 1037.12 18.024 1036.92 18.392C1036.72 18.76 1036.62 19.192 1036.62 19.688C1036.62 20.192 1036.72 20.632 1036.92 21.008C1037.12 21.376 1037.39 21.66 1037.73 21.86C1038.06 22.052 1038.44 22.148 1038.84 22.148C1039.25 22.148 1039.62 22.052 1039.96 21.86C1040.3 21.66 1040.58 21.376 1040.78 21.008C1040.98 20.632 1041.08 20.196 1041.08 19.7ZM1043.62 19.7C1043.62 19.02 1043.75 18.428 1044.03 17.924C1044.3 17.412 1044.67 17.016 1045.15 16.736C1045.64 16.456 1046.2 16.316 1046.82 16.316C1047.63 16.316 1048.29 16.512 1048.81 16.904C1049.34 17.296 1049.69 17.84 1049.86 18.536H1048.68C1048.57 18.136 1048.35 17.82 1048.02 17.588C1047.7 17.356 1047.3 17.24 1046.82 17.24C1046.2 17.24 1045.69 17.456 1045.31 17.888C1044.93 18.312 1044.73 18.916 1044.73 19.7C1044.73 20.492 1044.93 21.104 1045.31 21.536C1045.69 21.968 1046.2 22.184 1046.82 22.184C1047.3 22.184 1047.7 22.072 1048.02 21.848C1048.34 21.624 1048.56 21.304 1048.68 20.888H1049.86C1049.68 21.56 1049.33 22.1 1048.8 22.508C1048.27 22.908 1047.61 23.108 1046.82 23.108C1046.2 23.108 1045.64 22.968 1045.15 22.688C1044.67 22.408 1044.3 22.012 1044.03 21.5C1043.75 20.988 1043.62 20.388 1043.62 19.7ZM1052.65 17.324V21.2C1052.65 21.52 1052.71 21.748 1052.85 21.884C1052.99 22.012 1053.22 22.076 1053.56 22.076H1054.36V23H1053.38C1052.77 23 1052.31 22.86 1052.01 22.58C1051.71 22.3 1051.55 21.84 1051.55 21.2V17.324H1050.7V16.424H1051.55V14.768H1052.65V16.424H1054.36V17.324H1052.65ZM1059.95 14.636V19.928C1059.95 20.672 1060.13 21.224 1060.49 21.584C1060.86 21.944 1061.37 22.124 1062.02 22.124C1062.66 22.124 1063.16 21.944 1063.52 21.584C1063.88 21.224 1064.07 20.672 1064.07 19.928V14.636H1065.16V19.916C1065.16 20.612 1065.02 21.2 1064.74 21.68C1064.46 22.152 1064.08 22.504 1063.6 22.736C1063.13 22.968 1062.6 23.084 1062 23.084C1061.41 23.084 1060.88 22.968 1060.4 22.736C1059.92 22.504 1059.55 22.152 1059.27 21.68C1059 21.2 1058.86 20.612 1058.86 19.916V14.636H1059.95ZM1069.31 23.108C1068.81 23.108 1068.35 23.024 1067.95 22.856C1067.55 22.68 1067.24 22.44 1067.01 22.136C1066.77 21.824 1066.65 21.468 1066.62 21.068H1067.75C1067.78 21.396 1067.93 21.664 1068.21 21.872C1068.49 22.08 1068.85 22.184 1069.3 22.184C1069.71 22.184 1070.04 22.092 1070.28 21.908C1070.52 21.724 1070.64 21.492 1070.64 21.212C1070.64 20.924 1070.51 20.712 1070.26 20.576C1070 20.432 1069.61 20.292 1069.07 20.156C1068.58 20.028 1068.18 19.9 1067.87 19.772C1067.57 19.636 1067.3 19.44 1067.08 19.184C1066.86 18.92 1066.75 18.576 1066.75 18.152C1066.75 17.816 1066.85 17.508 1067.05 17.228C1067.25 16.948 1067.54 16.728 1067.91 16.568C1068.27 16.4 1068.69 16.316 1069.17 16.316C1069.89 16.316 1070.48 16.5 1070.93 16.868C1071.38 17.236 1071.62 17.74 1071.65 18.38H1070.56C1070.53 18.036 1070.39 17.76 1070.14 17.552C1069.89 17.344 1069.55 17.24 1069.13 17.24C1068.74 17.24 1068.43 17.324 1068.19 17.492C1067.96 17.66 1067.85 17.88 1067.85 18.152C1067.85 18.368 1067.91 18.548 1068.05 18.692C1068.19 18.828 1068.37 18.94 1068.58 19.028C1068.79 19.108 1069.09 19.2 1069.47 19.304C1069.94 19.432 1070.32 19.56 1070.62 19.688C1070.91 19.808 1071.17 19.992 1071.37 20.24C1071.59 20.488 1071.7 20.812 1071.71 21.212C1071.71 21.572 1071.61 21.896 1071.41 22.184C1071.21 22.472 1070.93 22.7 1070.56 22.868C1070.2 23.028 1069.78 23.108 1069.31 23.108Z" fill="black"/>
<rect x="1109.5" y="0.5" width="108" height="37" rx="18.5" stroke="#FF4A22"/>
<path d="M1136.65 23.084C1136.09 23.084 1135.58 22.988 1135.14 22.796C1134.69 22.596 1134.34 22.316 1134.08 21.956C1133.82 21.596 1133.7 21.176 1133.7 20.696H1135.16C1135.19 21.056 1135.33 21.352 1135.58 21.584C1135.84 21.816 1136.19 21.932 1136.65 21.932C1137.12 21.932 1137.49 21.82 1137.75 21.596C1138.02 21.364 1138.15 21.068 1138.15 20.708C1138.15 20.428 1138.06 20.2 1137.9 20.024C1137.74 19.848 1137.53 19.712 1137.28 19.616C1137.04 19.52 1136.71 19.416 1136.28 19.304C1135.73 19.16 1135.29 19.016 1134.94 18.872C1134.61 18.72 1134.32 18.488 1134.08 18.176C1133.84 17.864 1133.72 17.448 1133.72 16.928C1133.72 16.448 1133.84 16.028 1134.08 15.668C1134.32 15.308 1134.66 15.032 1135.09 14.84C1135.52 14.648 1136.02 14.552 1136.59 14.552C1137.4 14.552 1138.06 14.756 1138.57 15.164C1139.09 15.564 1139.38 16.116 1139.43 16.82H1137.92C1137.9 16.516 1137.75 16.256 1137.49 16.04C1137.22 15.824 1136.88 15.716 1136.44 15.716C1136.05 15.716 1135.73 15.816 1135.48 16.016C1135.24 16.216 1135.11 16.504 1135.11 16.88C1135.11 17.136 1135.19 17.348 1135.34 17.516C1135.5 17.676 1135.7 17.804 1135.94 17.9C1136.18 17.996 1136.51 18.1 1136.92 18.212C1137.48 18.364 1137.92 18.516 1138.27 18.668C1138.62 18.82 1138.92 19.056 1139.16 19.376C1139.4 19.688 1139.53 20.108 1139.53 20.636C1139.53 21.06 1139.41 21.46 1139.18 21.836C1138.96 22.212 1138.62 22.516 1138.18 22.748C1137.75 22.972 1137.24 23.084 1136.65 23.084ZM1147.13 16.388V23H1145.76V22.22C1145.55 22.492 1145.26 22.708 1144.91 22.868C1144.57 23.02 1144.2 23.096 1143.81 23.096C1143.29 23.096 1142.82 22.988 1142.4 22.772C1141.99 22.556 1141.67 22.236 1141.43 21.812C1141.2 21.388 1141.08 20.876 1141.08 20.276V16.388H1142.44V20.072C1142.44 20.664 1142.59 21.12 1142.88 21.44C1143.18 21.752 1143.58 21.908 1144.09 21.908C1144.61 21.908 1145.01 21.752 1145.31 21.44C1145.61 21.12 1145.76 20.664 1145.76 20.072V16.388H1147.13ZM1150.3 17.372C1150.54 17.052 1150.85 16.792 1151.25 16.592C1151.66 16.384 1152.11 16.28 1152.61 16.28C1153.19 16.28 1153.72 16.42 1154.19 16.7C1154.66 16.98 1155.04 17.38 1155.31 17.9C1155.58 18.412 1155.72 19 1155.72 19.664C1155.72 20.328 1155.58 20.924 1155.31 21.452C1155.04 21.972 1154.66 22.38 1154.18 22.676C1153.71 22.964 1153.18 23.108 1152.61 23.108C1152.1 23.108 1151.64 23.008 1151.24 22.808C1150.85 22.608 1150.54 22.352 1150.3 22.04V23H1148.94V14.12H1150.3V17.372ZM1154.32 19.664C1154.32 19.208 1154.23 18.816 1154.04 18.488C1153.85 18.152 1153.6 17.9 1153.29 17.732C1152.99 17.556 1152.66 17.468 1152.31 17.468C1151.96 17.468 1151.64 17.556 1151.32 17.732C1151.02 17.908 1150.77 18.164 1150.58 18.5C1150.4 18.836 1150.3 19.232 1150.3 19.688C1150.3 20.144 1150.4 20.544 1150.58 20.888C1150.77 21.224 1151.02 21.48 1151.32 21.656C1151.64 21.832 1151.96 21.92 1152.31 21.92C1152.66 21.92 1152.99 21.832 1153.29 21.656C1153.6 21.472 1153.85 21.208 1154.04 20.864C1154.23 20.52 1154.32 20.12 1154.32 19.664ZM1159.47 23.108C1158.95 23.108 1158.48 23.016 1158.06 22.832C1157.66 22.64 1157.33 22.384 1157.09 22.064C1156.85 21.736 1156.72 21.372 1156.71 20.972H1158.12C1158.15 21.252 1158.28 21.488 1158.52 21.68C1158.77 21.864 1159.08 21.956 1159.44 21.956C1159.83 21.956 1160.12 21.884 1160.33 21.74C1160.55 21.588 1160.66 21.396 1160.66 21.164C1160.66 20.916 1160.54 20.732 1160.3 20.612C1160.06 20.492 1159.69 20.36 1159.18 20.216C1158.68 20.08 1158.28 19.948 1157.97 19.82C1157.66 19.692 1157.38 19.496 1157.15 19.232C1156.93 18.968 1156.82 18.62 1156.82 18.188C1156.82 17.836 1156.92 17.516 1157.13 17.228C1157.34 16.932 1157.63 16.7 1158.02 16.532C1158.41 16.364 1158.86 16.28 1159.36 16.28C1160.11 16.28 1160.72 16.472 1161.17 16.856C1161.64 17.232 1161.88 17.748 1161.92 18.404H1160.55C1160.52 18.108 1160.4 17.872 1160.19 17.696C1159.97 17.52 1159.68 17.432 1159.31 17.432C1158.95 17.432 1158.68 17.5 1158.48 17.636C1158.29 17.772 1158.2 17.952 1158.2 18.176C1158.2 18.352 1158.26 18.5 1158.39 18.62C1158.52 18.74 1158.67 18.836 1158.86 18.908C1159.04 18.972 1159.31 19.056 1159.67 19.16C1160.15 19.288 1160.54 19.42 1160.85 19.556C1161.16 19.684 1161.43 19.876 1161.65 20.132C1161.88 20.388 1161.99 20.728 1162 21.152C1162 21.528 1161.9 21.864 1161.69 22.16C1161.48 22.456 1161.18 22.688 1160.8 22.856C1160.42 23.024 1159.98 23.108 1159.47 23.108ZM1163.02 19.688C1163.02 19.008 1163.16 18.412 1163.43 17.9C1163.71 17.38 1164.09 16.98 1164.58 16.7C1165.07 16.42 1165.63 16.28 1166.26 16.28C1167.06 16.28 1167.72 16.472 1168.24 16.856C1168.77 17.232 1169.13 17.772 1169.31 18.476H1167.83C1167.71 18.148 1167.52 17.892 1167.26 17.708C1166.99 17.524 1166.66 17.432 1166.26 17.432C1165.7 17.432 1165.25 17.632 1164.92 18.032C1164.59 18.424 1164.43 18.976 1164.43 19.688C1164.43 20.4 1164.59 20.956 1164.92 21.356C1165.25 21.756 1165.7 21.956 1166.26 21.956C1167.05 21.956 1167.58 21.608 1167.83 20.912H1169.31C1169.12 21.584 1168.76 22.12 1168.23 22.52C1167.7 22.912 1167.05 23.108 1166.26 23.108C1165.63 23.108 1165.07 22.968 1164.58 22.688C1164.09 22.4 1163.71 22 1163.43 21.488C1163.16 20.968 1163.02 20.368 1163.02 19.688ZM1172.04 17.348C1172.24 17.012 1172.51 16.752 1172.83 16.568C1173.17 16.376 1173.57 16.28 1174.02 16.28V17.696H1173.67C1173.14 17.696 1172.73 17.832 1172.45 18.104C1172.18 18.376 1172.04 18.848 1172.04 19.52V23H1170.67V16.388H1172.04V17.348ZM1175.97 15.512C1175.73 15.512 1175.52 15.428 1175.35 15.26C1175.18 15.092 1175.1 14.884 1175.1 14.636C1175.1 14.388 1175.18 14.18 1175.35 14.012C1175.52 13.844 1175.73 13.76 1175.97 13.76C1176.21 13.76 1176.42 13.844 1176.59 14.012C1176.75 14.18 1176.84 14.388 1176.84 14.636C1176.84 14.884 1176.75 15.092 1176.59 15.26C1176.42 15.428 1176.21 15.512 1175.97 15.512ZM1176.65 16.388V23H1175.28V16.388H1176.65ZM1179.81 17.372C1180.04 17.052 1180.36 16.792 1180.76 16.592C1181.17 16.384 1181.62 16.28 1182.11 16.28C1182.7 16.28 1183.23 16.42 1183.7 16.7C1184.17 16.98 1184.54 17.38 1184.81 17.9C1185.09 18.412 1185.22 19 1185.22 19.664C1185.22 20.328 1185.09 20.924 1184.81 21.452C1184.54 21.972 1184.17 22.38 1183.69 22.676C1183.21 22.964 1182.69 23.108 1182.11 23.108C1181.6 23.108 1181.15 23.008 1180.75 22.808C1180.35 22.608 1180.04 22.352 1179.81 22.04V23H1178.44V14.12H1179.81V17.372ZM1183.83 19.664C1183.83 19.208 1183.73 18.816 1183.54 18.488C1183.36 18.152 1183.11 17.9 1182.8 17.732C1182.49 17.556 1182.17 17.468 1181.81 17.468C1181.47 17.468 1181.14 17.556 1180.83 17.732C1180.53 17.908 1180.28 18.164 1180.09 18.5C1179.9 18.836 1179.81 19.232 1179.81 19.688C1179.81 20.144 1179.9 20.544 1180.09 20.888C1180.28 21.224 1180.53 21.48 1180.83 21.656C1181.14 21.832 1181.47 21.92 1181.81 21.92C1182.17 21.92 1182.49 21.832 1182.8 21.656C1183.11 21.472 1183.36 21.208 1183.54 20.864C1183.73 20.52 1183.83 20.12 1183.83 19.664ZM1192.64 19.532C1192.64 19.78 1192.62 20.004 1192.59 20.204H1187.54C1187.58 20.732 1187.77 21.156 1188.12 21.476C1188.48 21.796 1188.91 21.956 1189.42 21.956C1190.16 21.956 1190.68 21.648 1190.98 21.032H1192.46C1192.26 21.64 1191.89 22.14 1191.36 22.532C1190.84 22.916 1190.2 23.108 1189.42 23.108C1188.79 23.108 1188.22 22.968 1187.72 22.688C1187.22 22.4 1186.83 22 1186.54 21.488C1186.26 20.968 1186.12 20.368 1186.12 19.688C1186.12 19.008 1186.26 18.412 1186.53 17.9C1186.81 17.38 1187.2 16.98 1187.69 16.7C1188.2 16.42 1188.77 16.28 1189.42 16.28C1190.04 16.28 1190.6 16.416 1191.09 16.688C1191.58 16.96 1191.96 17.344 1192.23 17.84C1192.5 18.328 1192.64 18.892 1192.64 19.532ZM1191.21 19.1C1191.2 18.596 1191.02 18.192 1190.67 17.888C1190.32 17.584 1189.88 17.432 1189.36 17.432C1188.89 17.432 1188.48 17.584 1188.15 17.888C1187.81 18.184 1187.61 18.588 1187.55 19.1H1191.21Z" fill="#FF4A22"/>
</svg>
