<svg width="111" height="21" viewBox="0 0 111 21" fill="none" xmlns="http://www.w3.org/2000/svg">
<path d="M7.58 15L4.5 9.56H3.18V15H0.38V1.04H5.62C6.7 1.04 7.62 1.23333 8.38 1.62C9.14 1.99333 9.70667 2.50667 10.08 3.16C10.4667 3.8 10.66 4.52 10.66 5.32C10.66 6.24 10.3933 7.07333 9.86 7.82C9.32667 8.55333 8.53333 9.06 7.48 9.34L10.82 15H7.58ZM3.18 7.46H5.52C6.28 7.46 6.84667 7.28 7.22 6.92C7.59333 6.54667 7.78 6.03333 7.78 5.38C7.78 4.74 7.59333 4.24667 7.22 3.9C6.84667 3.54 6.28 3.36 5.52 3.36H3.18V7.46ZM12.4725 9.42C12.4725 8.3 12.6925 7.30667 13.1325 6.44C13.5858 5.57333 14.1925 4.90667 14.9525 4.44C15.7258 3.97333 16.5858 3.74 17.5325 3.74C18.3592 3.74 19.0792 3.90667 19.6925 4.24C20.3192 4.57333 20.8192 4.99333 21.1925 5.5V3.92H24.0125V15H21.1925V13.38C20.8325 13.9 20.3325 14.3333 19.6925 14.68C19.0658 15.0133 18.3392 15.18 17.5125 15.18C16.5792 15.18 15.7258 14.94 14.9525 14.46C14.1925 13.98 13.5858 13.3067 13.1325 12.44C12.6925 11.56 12.4725 10.5533 12.4725 9.42ZM21.1925 9.46C21.1925 8.78 21.0592 8.2 20.7925 7.72C20.5258 7.22667 20.1658 6.85333 19.7125 6.6C19.2592 6.33333 18.7725 6.2 18.2525 6.2C17.7325 6.2 17.2525 6.32667 16.8125 6.58C16.3725 6.83333 16.0125 7.20667 15.7325 7.7C15.4658 8.18 15.3325 8.75333 15.3325 9.42C15.3325 10.0867 15.4658 10.6733 15.7325 11.18C16.0125 11.6733 16.3725 12.0533 16.8125 12.32C17.2658 12.5867 17.7458 12.72 18.2525 12.72C18.7725 12.72 19.2592 12.5933 19.7125 12.34C20.1658 12.0733 20.5258 11.7 20.7925 11.22C21.0592 10.7267 21.1925 10.14 21.1925 9.46ZM40.5072 3.76C41.8672 3.76 42.9605 4.18 43.7872 5.02C44.6272 5.84667 45.0472 7.00667 45.0472 8.5V15H42.2472V8.88C42.2472 8.01333 42.0272 7.35333 41.5872 6.9C41.1472 6.43333 40.5472 6.2 39.7872 6.2C39.0272 6.2 38.4205 6.43333 37.9672 6.9C37.5272 7.35333 37.3072 8.01333 37.3072 8.88V15H34.5072V8.88C34.5072 8.01333 34.2872 7.35333 33.8472 6.9C33.4072 6.43333 32.8072 6.2 32.0472 6.2C31.2739 6.2 30.6605 6.43333 30.2072 6.9C29.7672 7.35333 29.5472 8.01333 29.5472 8.88V15H26.7472V3.92H29.5472V5.26C29.9072 4.79333 30.3672 4.42667 30.9272 4.16C31.5005 3.89333 32.1272 3.76 32.8072 3.76C33.6739 3.76 34.4472 3.94667 35.1272 4.32C35.8072 4.68 36.3339 5.2 36.7072 5.88C37.0672 5.24 37.5872 4.72667 38.2672 4.34C38.9605 3.95333 39.7072 3.76 40.5072 3.76ZM58.0042 9.22C58.0042 9.62 57.9776 9.98 57.9242 10.3H49.8242C49.8909 11.1 50.1709 11.7267 50.6642 12.18C51.1576 12.6333 51.7642 12.86 52.4842 12.86C53.5242 12.86 54.2642 12.4133 54.7042 11.52H57.7242C57.4042 12.5867 56.7909 13.4667 55.8842 14.16C54.9776 14.84 53.8642 15.18 52.5442 15.18C51.4776 15.18 50.5176 14.9467 49.6642 14.48C48.8242 14 48.1642 13.3267 47.6842 12.46C47.2176 11.5933 46.9842 10.5933 46.9842 9.46C46.9842 8.31333 47.2176 7.30667 47.6842 6.44C48.1509 5.57333 48.8042 4.90667 49.6442 4.44C50.4842 3.97333 51.4509 3.74 52.5442 3.74C53.5976 3.74 54.5376 3.96667 55.3642 4.42C56.2042 4.87333 56.8509 5.52 57.3042 6.36C57.7709 7.18667 58.0042 8.14 58.0042 9.22ZM55.1042 8.42C55.0909 7.7 54.8309 7.12667 54.3242 6.7C53.8176 6.26 53.1976 6.04 52.4642 6.04C51.7709 6.04 51.1842 6.25333 50.7042 6.68C50.2376 7.09333 49.9509 7.67333 49.8442 8.42H55.1042ZM66.188 3.76C67.508 3.76 68.5746 4.18 69.388 5.02C70.2013 5.84667 70.608 7.00667 70.608 8.5V15H67.808V8.88C67.808 8 67.588 7.32667 67.148 6.86C66.708 6.38 66.108 6.14 65.348 6.14C64.5746 6.14 63.9613 6.38 63.508 6.86C63.068 7.32667 62.848 8 62.848 8.88V15H60.048V3.92H62.848V5.3C63.2213 4.82 63.6946 4.44667 64.268 4.18C64.8546 3.9 65.4946 3.76 66.188 3.76Z" fill="#FF4A22"/>
<path d="M74.0106 15.12C73.664 15.12 73.3706 15 73.1306 14.76C72.8906 14.52 72.7706 14.2267 72.7706 13.88C72.7706 13.5333 72.8906 13.24 73.1306 13C73.3706 12.76 73.664 12.64 74.0106 12.64C74.344 12.64 74.624 12.76 74.8506 13C75.0906 13.24 75.2106 13.5333 75.2106 13.88C75.2106 14.2267 75.0906 14.52 74.8506 14.76C74.624 15 74.344 15.12 74.0106 15.12ZM83.7498 15L79.4498 10.16V15H77.6298V0.2H79.4498V8.9L83.6698 4.04H86.2098L81.0498 9.5L86.2298 15H83.7498ZM97.6428 4.04V15H95.8228V13.38C95.4761 13.94 94.9895 14.38 94.3628 14.7C93.7495 15.0067 93.0695 15.16 92.3228 15.16C91.4695 15.16 90.7028 14.9867 90.0228 14.64C89.3428 14.28 88.8028 13.7467 88.4028 13.04C88.0161 12.3333 87.8228 11.4733 87.8228 10.46V4.04H89.6228V10.22C89.6228 11.3 89.8961 12.1333 90.4428 12.72C90.9895 13.2933 91.7361 13.58 92.6828 13.58C93.6561 13.58 94.4228 13.28 94.9828 12.68C95.5428 12.08 95.8228 11.2067 95.8228 10.06V4.04H97.6428ZM110.156 4.04L103.556 20.16H101.676L103.836 14.88L99.4158 4.04H101.436L104.876 12.92L108.276 4.04H110.156Z" fill="black"/>
</svg>
